# xmcd
#
# Track frame offsets: 
#        150
#        19378
#        32080
#        57682
#        72557
#        87612
#        107664
#        119124
#        129854
#        142987
#        164816
#        183511
#        201150
#        213969
#        269669
#        291229
#        312745
#
# Disc length: 4439 seconds
#
# Revision: 0
# Processed by: cddbd v1.5.2PL0 Copyright (c) Steve Scherf et al.
# Submitted via: ExactAudioCopy v1.3
#
DISCID=20115511
DTITLE=Hennig Pertiet - Classics - The Very Best in 25 Years in Boogie
DTITLE=and Blues Piano
DYEAR=1900
DGENRE=Blues
TTITLE0=Chicago Is Callin'
TTITLE1=Let It Rain
TTITLE2=Take A Train, Train
TTITLE3=The Fives
TTITLE4=Get In The Groove Boys
TTITLE5=How Long Blues
TTITLE6=Jimmy's Rocks
TTITLE7=Yancey's Bugle Call
TTITLE8=Gant's Groove
TTITLE9=Off-Shoot-Zero
TTITLE10=Blues Flakes
TTITLE11=Abdullah's Blues
TTITLE12=Spannish Boogie
TTITLE13=Lingony Ext.
TTITLE14=Blue Monk
TTITLE15=On The Sunny Side Of The Street
TTITLE16=Deep In My Heart
EXTD=
EXTT0=
EXTT1=
EXTT2=
EXTT3=
EXTT4=
EXTT5=
EXTT6=
EXTT7=
EXTT8=
EXTT9=
EXTT10=
EXTT11=
EXTT12=
EXTT13=
EXTT14=
EXTT15=
EXTT16=
PLAYORDER=
